<?xml version="1.0" standalone="no"?>
<!DOCTYPE svg PUBLIC "-//W3C//DTD SVG 20010904//EN"
 "http://www.w3.org/TR/2001/REC-SVG-20010904/DTD/svg10.dtd">
<svg version="1.0" xmlns="http://www.w3.org/2000/svg"
 width="652.000000pt" height="652.000000pt" viewBox="0 0 652.000000 652.000000"
 preserveAspectRatio="xMidYMid meet">
<metadata>
Created by potrace 1.11, written by Peter Selinger 2001-2013
</metadata>
<g transform="translate(0.000000,652.000000) scale(0.100000,-0.100000)"
fill="#000000" stroke="none">
<path d="M6430 6451 c-41 -15 -79 -29 -85 -33 -5 -3 -26 -10 -45 -16 -19 -5
-127 -42 -240 -82 -113 -39 -275 -95 -360 -125 -85 -29 -240 -83 -345 -120
-104 -36 -215 -75 -245 -85 -67 -22 -274 -94 -550 -190 -113 -40 -223 -78
-245 -85 -22 -7 -125 -43 -230 -80 -104 -36 -260 -90 -345 -120 -85 -29 -213
-74 -285 -99 -71 -24 -233 -81 -360 -124 -126 -44 -250 -87 -275 -96 -25 -10
-49 -18 -55 -20 -5 -2 -17 -6 -25 -9 -13 -5 -212 -73 -505 -173 -55 -19 -106
-38 -113 -43 -15 -9 -41 19 614 -648 221 -224 451 -459 512 -521 61 -62 296
-302 524 -533 227 -231 475 -484 551 -562 77 -78 240 -244 363 -370 224 -226
224 -227 235 -200 11 28 117 317 280 763 50 135 117 317 149 405 32 88 129
354 215 590 86 237 161 439 165 450 5 11 55 146 111 300 151 418 199 548 209
570 4 11 44 119 88 240 161 441 235 643 289 790 78 212 93 255 85 254 -4 -1
-41 -14 -82 -28z m-390 -446 c0 -3 -52 -148 -116 -322 -65 -175 -123 -336
-131 -358 -7 -22 -18 -49 -23 -60 -4 -11 -32 -85 -61 -165 -28 -80 -65 -181
-81 -225 -17 -44 -34 -93 -40 -110 -5 -16 -13 -39 -18 -50 -13 -32 -50 -133
-235 -640 -58 -159 -114 -312 -125 -340 -18 -49 -115 -315 -206 -565 -25 -69
-67 -183 -94 -255 -27 -71 -59 -158 -71 -193 l-22 -63 -146 150 c-80 82 -322
328 -538 548 -215 219 -453 461 -530 539 -76 78 -313 320 -528 538 -214 219
-391 400 -393 404 -2 7 82 37 503 182 77 27 194 67 260 90 66 23 217 76 335
117 118 41 274 94 345 119 72 25 150 52 175 60 25 8 54 19 65 24 11 5 63 23
115 41 52 17 185 63 295 101 110 38 263 91 340 118 77 27 205 71 285 98 313
109 576 201 600 210 29 12 40 14 40 7z"/>
<path d="M1849 4118 c-107 -104 -391 -384 -633 -621 -241 -238 -511 -503 -600
-590 -495 -486 -606 -598 -606 -607 0 -5 57 -68 127 -140 l126 -129 48 47 c40
40 564 556 1054 1037 83 81 327 321 543 533 215 212 392 389 392 392 0 3 -58
65 -128 137 l-129 132 -194 -191z"/>
<path d="M2539 3047 c-531 -522 -1142 -1124 -1355 -1332 l-214 -210 128 -128
c70 -70 130 -130 133 -132 6 -6 51 37 752 727 253 249 510 502 571 562 174
170 505 498 517 512 7 9 -25 47 -118 143 -70 72 -129 131 -132 131 -4 0 -130
-123 -282 -273z"/>
<path d="M3750 2053 c-139 -137 -329 -324 -423 -417 -95 -92 -365 -358 -600
-590 -236 -231 -504 -494 -595 -584 l-166 -162 50 -51 c27 -28 86 -89 131
-135 l83 -84 236 232 c272 268 361 355 958 943 241 237 530 521 643 631 l206
202 -128 131 c-71 72 -132 131 -136 131 -4 0 -121 -111 -259 -247z"/>
</g>
</svg>
